<?xml version="1.0" standalone="no"?>
<!DOCTYPE svg PUBLIC "-//W3C//DTD SVG 20010904//EN"
 "http://www.w3.org/TR/2001/REC-SVG-20010904/DTD/svg10.dtd">
<svg version="1.0" xmlns="http://www.w3.org/2000/svg"
 width="256.000000pt" height="256.000000pt" viewBox="0 0 256.000000 256.000000"
 preserveAspectRatio="xMidYMid meet">

<g transform="translate(0.000000,256.000000) scale(0.100000,-0.100000)"
fill="#000000" stroke="none">
<path d="M1203 2072 c-133 -48 -201 -152 -190 -295 4 -60 12 -85 56 -168 71
-136 70 -138 -31 -141 l-83 -3 0 -30 c0 -28 4 -31 69 -52 38 -13 75 -28 82
-34 20 -16 21 -756 1 -783 -7 -10 -37 -23 -67 -30 -59 -14 -82 -35 -64 -63 10
-16 36 -18 270 -21 142 -1 269 0 282 3 15 4 22 13 22 29 0 34 -16 43 -90 51
-36 3 -72 8 -81 11 -36 10 -39 46 -39 444 l0 390 104 0 c97 0 107 2 133 24 23
20 26 28 17 43 -10 16 -28 18 -138 21 -118 2 -126 4 -126 23 0 25 -36 97 -90
177 -51 78 -70 130 -70 194 0 62 24 115 64 139 34 21 106 25 138 8 29 -16 48
-70 48 -139 0 -52 4 -64 29 -92 25 -28 36 -33 75 -33 36 0 51 6 73 28 25 24
28 35 28 91 0 88 -38 149 -119 191 -51 26 -71 30 -155 32 -74 3 -108 -1 -148
-15z"/>
</g>
</svg>
